<?xml version="1.0" encoding="UTF-8"?>
<svg width="800px" height="800px" viewBox="0 0 256 256" xmlns="http://www.w3.org/2000/svg">
    <polygon fill="url(#linearGradient-1)" points="64.8 199.6 2.8 150.8 33.6 93.6 122 128"/>
    <polygon fill="url(#linearGradient-2)"
             points="256 68.4 251.2 216.4 152.8 256 93.6 217.6 180 128 142.4 44.8 176.4 4"/>
    <polygon fill="url(#linearGradient-3)" points="256 68.4 178 160.4 142.4 44.8 176.4 4"/>
    <polygon fill="url(#linearGradient-4)"
             points="123.2 212.4 20.8 249.6 37.2 192 58.4 120.8 0 101.2 37.2 0 117.2 9.6 196.4 100"/>
    <rect fill="#000000" x="48" y="48" width="160" height="160"/>
    <path d="M63.2,178 L123.2,178 L123.2,188 L63.2,188 L63.2,178 Z M106,80.8 L106,68.8 L73.2,68.8 L73.2,80.8 L82.4,80.8 L82.4,122.8 L73.2,122.8 L73.2,135.2 L106,135.2 L106,122.8 L96.8,122.8 L96.8,80.8 L106,80.8 Z M138,136 C133.433351,136.205984 128.889763,135.242193 124.8,133.2 C121.453966,131.354025 118.472002,128.914237 116,126 L125.2,115.6 C126.861272,117.42513 128.742265,119.03741 130.8,120.4 C132.73613,121.535124 134.957474,122.09046 137.2,122 C139.666127,122.188479 142.064692,121.139107 143.6,119.2 C145.452667,116.813942 146.312461,113.804666 146,110.8 L146,68 L160.8,68 L160.8,111.2 C160.951789,114.737935 160.408195,118.271293 159.2,121.6 C158.144579,124.977032 156.212191,128.013641 153.6,130.4 C149.066749,133.765567 143.638763,135.714074 138,136 Z"
          fill="#FFFFFF"/>
</svg>